<?xml version="1.0" encoding="UTF-8" standalone="no"?>
<svg width="303px" height="161px" viewBox="0 0 303 161" version="1.1" xmlns="http://www.w3.org/2000/svg" xmlns:xlink="http://www.w3.org/1999/xlink">
    <!-- Generator: Sketch 40.2 (33826) - http://www.bohemiancoding.com/sketch -->
    <title>Shape</title>
    <desc>Created with Sketch.</desc>
    <defs></defs>
    <g id="Page-1" stroke="none" stroke-width="1" fill="none" fill-rule="evenodd">
        <path d="M141.267511,66.1435572 C143.758697,70.0630143 146.376264,75.1688131 146.257105,79.3689346 L146.260059,154.215137 C146.260059,154.215137 138.805212,147.844213 137.304395,146.77539 C131.561438,142.683595 104.014942,121.695788 72.9780284,117.582985 C67.9444477,116.912672 62.904958,116.626099 57.9623061,116.626099 C26.3364891,116.626099 7.71709826,129.636792 7.55263876,129.757593 C5.09329433,131.502638 3.27832964,131.544984 2.4209073,130.258522 C1.80016247,129.328554 1.94394151,127.897328 2.82532692,125.913636 L22.018521,82.5665417 L38.9184715,44.4007463 C39.7470067,42.5211139 40.8010583,40.2882707 42.5523402,38.7513444 C44.0544704,37.4317282 46.9605805,36.430855 49.7038723,35.7815515 C51.9895657,35.2471399 77.0225538,28.4248553 102.289265,37.2157315 C127.287458,45.9117398 139.783435,63.8125633 141.267511,66.1435572 L141.267511,66.1435572 Z M232.088291,68.0067762 C234.262375,67.3154549 235.859374,65.8839012 236.60256,63.9517468 C237.342465,62.0130272 237.103818,59.8694713 235.956211,57.9126972 L221.559592,33.3947532 L221.348191,33.0641928 L204.952452,5.13724021 C203.352171,2.43924865 200.368919,0.768063 197.144066,0.768063 C195.810006,0.768063 194.496627,1.05627774 193.327683,1.62548534 C192.729917,1.9123871 178.193786,9.11972382 167.786216,23.1332599 C157.377989,37.1934095 155.970727,49.6756001 155.898509,50.1998357 C155.493761,54.1869149 155.161559,60.6303841 155.161559,64.6161503 L155.161559,153.243151 L157.49879,145.1541 C164.349633,121.454515 174.655442,106.429601 189.770628,92.4252565 C206.027512,77.3639059 231.825353,68.1032858 232.088291,68.0067762 L232.088291,68.0067762 Z M291.568515,136.783729 C291.175913,136.617628 290.786265,136.46991 290.390708,136.276563 L290.243318,136.201063 C289.02612,135.62726 273.491086,128.452749 255.111655,128.452749 C248.918979,128.452749 243.052267,129.271108 237.677621,130.886817 C207.16921,140.011536 182.93784,154.096962 180.277927,155.676562 L179.79177,155.951318 C179.154612,156.304529 178.249263,156.896387 177.346213,157.473473 C176.174643,158.22224 175.006027,158.961816 174.049142,159.511328 C173.502584,159.822193 172.781063,160.338878 172.022776,160.855236 C171.95023,160.906116 171.883921,160.948462 171.811375,160.999999 L296.32176,160.999999 C299.015155,160.999999 301.026093,159.831056 301.950153,157.754137 C302.904084,155.676562 302.578119,153.043567 301.080585,150.380371 C300.898398,150.020924 296.586996,143.610937 291.568515,136.783729 L291.568515,136.783729 Z M130.729621,155.906018 L129.571838,155.072559 C108.63163,139.926845 89.0960576,131.06769 71.5031442,128.737025 C67.2065132,128.16913 62.6515393,127.879274 57.9652606,127.879274 C30.5609025,127.879274 14.1559719,138.876076 13.9915124,138.984731 C12.1932892,140.262001 5.01451111,145.199073 1.94394151,150.380372 C0.449033133,153.043568 0.121754951,155.676563 1.07273209,157.754138 C2.00270028,159.831056 4.01232491,161 6.70407942,161 L136.872729,161 C134.139942,158.683778 131.416674,156.413184 130.729621,155.906018 L130.729621,155.906018 Z M300.053122,121.378687 L289.264767,100.686317 L288.83901,99.8709119 L262.72374,49.8187225 C260.887766,46.2619956 258.330271,41.6554846 257.044138,39.505692 L256.778245,39.0782938 C256.778245,39.0782938 245.648497,33.2401409 234.669421,33.5030796 L245.660314,52.2130708 C248.540492,57.1393097 249.063086,62.8763578 247.10664,67.9762476 C245.192211,72.9855372 241.076781,76.86232 235.789782,78.6349387 C233.153504,79.6102074 211.063391,88.034414 197.415211,100.676797 C182.526855,114.472695 174.093129,128.25973 168.307826,148.278833 L167.758314,150.17455 C168.005824,150.020595 168.253334,149.860731 168.464735,149.740258 C170.197634,148.749562 172.716066,147.010754 174.430911,146.059449 C174.675466,145.926502 200.591481,130.23423 234.439637,120.109951 C240.856189,118.180422 247.827833,117.195963 255.110998,117.195963 C277.020238,117.195963 295.185313,126.079409 295.354697,126.175918 C296.523312,126.749393 297.546836,127.036623 298.410495,127.036623 C299.720919,127.036623 300.366941,126.320682 300.626925,125.91298 C301.248655,124.83595 301.058591,123.334805 300.053122,121.378687 L300.053122,121.378687 Z" id="Shape" fill="#1296DB"></path>
    </g>
</svg>