<?xml version="1.0" encoding="UTF-8" standalone="no"?>
<svg width="137px" height="66px" viewBox="0 0 137 66" version="1.1" xmlns="http://www.w3.org/2000/svg" xmlns:xlink="http://www.w3.org/1999/xlink">
    <!-- Generator: Sketch 40.2 (33826) - http://www.bohemiancoding.com/sketch -->
    <title>点书</title>
    <desc>Created with Sketch.</desc>
    <defs></defs>
    <g id="Page-1" stroke="none" stroke-width="1" fill="none" fill-rule="evenodd">
        <path d="M57.628,13.272 L33.436,13.272 L33.436,20.256 L59.14,20.256 L59.14,46.248 L5.788,46.248 L5.788,20.256 L25.66,20.256 L25.66,0.312 L33.436,0.312 L33.436,5.496 L57.628,5.496 L57.628,13.272 Z M51.364,38.472 L51.364,28.032 L13.564,28.032 L13.564,38.472 L51.364,38.472 Z M40.996,64.896 L34.084,57.984 L40.924,51.072 L47.836,58.056 L40.996,64.896 Z M24.004,64.896 L17.092,57.984 L23.932,51.072 L30.844,58.056 L24.004,64.896 Z M7.156,64.896 L0.316,57.984 L7.084,51.072 L13.996,58.056 L7.156,64.896 Z M57.844,64.896 L50.932,57.984 L57.772,51.072 L64.612,58.056 L57.844,64.896 Z M119.332,52.944 L128.044,52.944 L128.044,38.472 L103.276,38.472 L103.276,65.04 L95.5,65.04 L95.5,38.472 L72.1,38.472 L72.1,30.696 L95.5,30.696 L95.5,17.016 L75.556,17.016 L75.556,9.24 L95.5,9.24 L95.5,0.384 L103.276,0.384 L103.276,9.24 L127.18,9.24 L127.18,30.696 L135.82,30.696 L135.82,60.72 L119.332,60.72 L119.332,52.944 Z M119.404,17.016 L103.276,17.016 L103.276,30.696 L119.404,30.696 L119.404,17.016 Z M124.876,6.432 L130.852,0.456 L136.828,6.432 L130.852,12.336 L124.876,6.432 Z" id="点书" fill="#27AE60"></path>
    </g>
</svg>